<svg width="24" height="24" viewBox="0 0 24 24" fill="none" xmlns="http://www.w3.org/2000/svg">
<path fill-rule="evenodd" clip-rule="evenodd" d="M15.7799 8.0209C16.3377 9.6318 15.8132 11.4192 14.4734 12.4733C16.7651 13.3827 18.3677 15.4828 18.6401 17.9333C18.6791 18.2973 18.4172 18.6247 18.0534 18.6666H17.9801C17.6387 18.6687 17.3509 18.4125 17.3134 18.0733C17.0103 15.3751 14.7285 13.3353 12.0134 13.3353C9.29825 13.3353 7.01648 15.3751 6.71339 18.0733C6.67289 18.4414 6.34158 18.7071 5.97339 18.6666C5.6052 18.6261 5.33956 18.2948 5.38006 17.9266C5.65113 15.4833 7.24479 13.3875 9.52672 12.4733C8.18696 11.4192 7.66246 9.6318 8.2202 8.0209C8.77794 6.41 10.2953 5.32959 12.0001 5.32959C13.7048 5.32959 15.2222 6.41 15.7799 8.0209ZM9.33339 9.33325C9.33339 10.806 10.5273 11.9999 12.0001 11.9999C12.7073 11.9999 13.3856 11.719 13.8857 11.2189C14.3858 10.7188 14.6667 10.0405 14.6667 9.33325C14.6667 7.86049 13.4728 6.66659 12.0001 6.66659C10.5273 6.66659 9.33339 7.86049 9.33339 9.33325Z" fill="#555555"/>
</svg>
